<?xml version="1.0" encoding="UTF-8"?>
<!--
  ファイル名 / File: 5garashi_logotype_bw_outlined.svg
  概要 / Description: ロゴタイプ(モノクロ・アウトライン化:規定3-6) / Logotype, monochrome outlined (rule 3-6)
  作成者 / Author: 5garashi.com設計事務所 / 5garashi.com Design Office
  作成日 / Created: 2026-07-11  版 / Version: 4.3
  ライセンス / License: CC BY-ND 4.0
  Copyright (c) 2026 5garashi.com Design Office
  SPDX-License-Identifier: CC-BY-ND-4.0
  備考 / Note: 文字はアウトライン化済み(和文=Noto Sans CJK JP Bold、「5」=DejaVu Serif Bold Italicによる近似)。フォント環境に依存しない。
-->
<svg xmlns="http://www.w3.org/2000/svg" viewBox="0 0 560 220">
  <rect x="4" y="4" width="552" height="212" fill="none" stroke="#1A1A1A" stroke-width="3"/>
  <rect x="14" y="14" width="532" height="192" fill="#FFFFFF" stroke="#1A1A1A" stroke-width="7"/>
  <g fill="#1A1A1A" transform="translate(53.1,118)"><path d="M47.0810546875 -53.9462890625 45.23828125 -44.4794921875H16.3681640625L14.0556640625 -32.6279296875Q16.8017578125 -34.470703125 19.9091796875 -35.41015625Q23.0166015625 -36.349609375 26.2685546875 -36.349609375Q36.2412109375 -36.349609375 41.046875 -31.30908203125Q45.8525390625 -26.2685546875 44.154296875 -17.5966796875Q42.4560546875 -8.7802734375 35.71728515625 -3.8662109375Q28.978515625 1.0478515625 18.572265625 1.0478515625Q14.1640625 1.0478515625 9.95458984375 0.3251953125Q5.7451171875 -0.3974609375 1.30078125 -1.9150390625L3.5771484375 -13.6943359375H7.9130859375Q7.1181640625 -8.3828125 9.15966796875 -5.78125Q11.201171875 -3.1796875 16.1875 -3.1796875Q21.4990234375 -3.1796875 24.7509765625 -6.73876953125Q28.0029296875 -10.2978515625 29.412109375 -17.5966796875Q30.8212890625 -24.787109375 28.99658203125 -28.34619140625Q27.171875 -31.9052734375 22.0771484375 -31.9052734375Q19.3310546875 -31.9052734375 16.96435546875 -30.76708984375Q14.59765625 -29.62890625 12.28515625 -27.244140625H8.671875L13.875 -53.9462890625Z"/></g>
  <g fill="#1A1A1A"><path d="M122.79262890625 134.038C135.13462890625 134.038 142.92262890625 128.362 142.92262890625 120.904C142.92262890625 114.436 138.03862890624998 111.664 129.12862890625 111.664H122.79262890625C118.50262890625 111.664 116.98462890625 110.608 116.98462890625 108.694C116.98462890625 107.11 117.64462890624999 106.318 118.56862890625 105.46C120.21862890624999 106.054 121.93462890625 106.318 123.32062890625 106.318C131.30662890624998 106.318 137.64262890625 102.16 137.64262890625 93.77799999999999C137.64262890625 91.468 136.91662890625 89.422 135.99262890625 88.168H142.26262890625V81.03999999999999H128.99662890625C127.41262890624999 80.512 125.49862890624999 80.116 123.32062890625 80.116C115.53262890625 80.116 108.47062890625 84.80199999999999 108.47062890625 93.44800000000001C108.47062890625 97.804 110.84662890624999 101.30199999999999 113.42062890624999 103.15V103.414C111.17662890624999 104.998 109.32862890624999 107.572 109.32862890624999 110.278C109.32862890624999 113.38 110.71462890625 115.294 112.69462890624999 116.548V116.878C109.19662890625 118.792 107.41462890624999 121.432 107.41462890624999 124.534C107.41462890624999 131.068 114.08062890625 134.038 122.79262890625 134.038ZM123.32062890625 100.312C120.15262890624999 100.312 117.57862890624999 97.87 117.57862890624999 93.44800000000001C117.57862890624999 89.158 120.08662890625 86.782 123.32062890625 86.782C126.62062890624999 86.782 129.19462890625 89.158 129.19462890625 93.44800000000001C129.19462890625 97.87 126.62062890624999 100.312 123.32062890625 100.312ZM124.24462890625 127.834C118.89862890625 127.834 115.46662890625 126.118 115.46662890625 123.082C115.46662890625 121.498 116.19262890625 120.046 117.84262890625 118.726C119.22862890625 119.056 120.74662890625 119.188 122.92462890624999 119.188H127.47862890625C131.43862890625 119.188 133.61662890624999 119.914 133.61662890624999 122.554C133.61662890624999 125.392 129.85462890624999 127.834 124.24462890625 127.834Z"/><path d="M158.23462890624998 118.924C162.52462890624997 118.924 166.22062890624997 116.878 169.38862890624998 114.04H169.71862890625L170.37862890625 118.0H178.29862890624997V96.418C178.29862890624997 85.726 173.48062890625 80.116 164.10862890624998 80.116C158.30062890624998 80.116 153.02062890624998 82.36 148.73062890625 85.0L152.16262890624998 91.468C155.59462890624997 89.422 158.89462890624998 87.904 162.32662890625 87.904C166.88062890624997 87.904 168.46462890624997 90.676 168.59662890624998 94.306C153.74662890624998 95.89 147.34462890625 100.048 147.34462890625 107.902C147.34462890625 114.238 151.63462890625 118.924 158.23462890624998 118.924ZM161.46862890625 111.334C158.63062890624997 111.334 156.58462890624997 110.08 156.58462890624997 107.176C156.58462890624997 103.81 159.55462890624997 101.368 168.59662890624998 100.312V107.704C166.28662890624997 110.014 164.24062890624998 111.334 161.46862890625 111.334Z"/><path d="M188.19862890624998 118.0H197.90062890624998V95.956C200.01262890624997 90.61 203.44462890625 88.696 206.28262890624998 88.696C207.86662890624999 88.696 208.92262890625 88.894 210.24262890625 89.28999999999999L211.82662890625 80.908C210.77062890624998 80.446 209.58262890625 80.116 207.53662890624997 80.116C203.70862890624997 80.116 199.74862890625 82.756 197.04262890624997 87.574H196.84462890625L196.11862890624997 81.03999999999999H188.19862890624998Z"/><path d="M226.01662890625 118.924C230.30662890624998 118.924 234.00262890624998 116.878 237.17062890625 114.04H237.50062890625L238.16062890625 118.0H246.08062890624998V96.418C246.08062890624998 85.726 241.26262890625 80.116 231.89062890625 80.116C226.08262890625 80.116 220.80262890625 82.36 216.51262890625 85.0L219.94462890625 91.468C223.37662890625 89.422 226.67662890625 87.904 230.10862890625 87.904C234.66262890625 87.904 236.24662890624998 90.676 236.37862890625 94.306C221.52862890625 95.89 215.12662890625 100.048 215.12662890625 107.902C215.12662890625 114.238 219.41662890625 118.924 226.01662890625 118.924ZM229.25062890625 111.334C226.41262890625 111.334 224.36662890624999 110.08 224.36662890624999 107.176C224.36662890624999 103.81 227.33662890624998 101.368 236.37862890625 100.312V107.704C234.06862890624998 110.014 232.02262890625 111.334 229.25062890625 111.334Z"/><path d="M266.54062890625 118.924C276.11062890625 118.924 281.25862890625 113.776 281.25862890625 107.242C281.25862890625 100.444 275.84662890625 97.936 270.96262890625 96.088C267.00262890625 94.636 263.63662890625 93.646 263.63662890625 90.94C263.63662890625 88.828 265.22062890625 87.376 268.58662890625 87.376C271.29262890625 87.376 273.86662890625 88.696 276.50662890625 90.544L280.86262890625 84.67C277.82662890625 82.294 273.66862890625 80.116 268.32262890625 80.116C259.87462890625 80.116 254.52862890625 84.80199999999999 254.52862890625 91.402C254.52862890625 97.606 259.74262890625 100.444 264.42862890624997 102.226C268.32262890625 103.744 272.15062890625 104.998 272.15062890625 107.77C272.15062890625 110.08 270.50062890625 111.664 266.80462890625 111.664C263.30662890625 111.664 260.20462890625 110.146 256.90462890624997 107.638L252.48262890625 113.776C256.17862890624997 116.812 261.59062890625 118.924 266.54062890625 118.924Z"/><path d="M288.65062890625 118.0H298.35262890625V92.59C301.05862890625 89.884 303.03862890625 88.432 306.00862890625 88.432C309.63862890625 88.432 311.22262890625 90.412 311.22262890625 96.154V118.0H320.92462890625V94.966C320.92462890625 85.66 317.49262890625 80.116 309.50662890625 80.116C304.49062890625 80.116 300.79462890625 82.756 297.89062890625 85.52799999999999L298.35262890625 78.598V65.332H288.65062890625Z"/><path d="M330.89062890625 118.0H340.59262890625V81.03999999999999H330.89062890625ZM335.77462890625003 75.03399999999999C339.07462890625004 75.03399999999999 341.38462890625004 72.988 341.38462890625004 69.75399999999999C341.38462890625004 66.586 339.07462890625004 64.47399999999999 335.77462890625003 64.47399999999999C332.34262890625 64.47399999999999 330.16462890625 66.586 330.16462890625 69.75399999999999C330.16462890625 72.988 332.34262890625 75.03399999999999 335.77462890625003 75.03399999999999Z"/><path d="M356.49862890625 118.924C359.93062890625004 118.924 362.50462890625005 116.152 362.50462890625005 112.588C362.50462890625005 108.958 359.93062890625004 106.252 356.49862890625 106.252C353.00062890625003 106.252 350.42662890625 108.958 350.42662890625 112.588C350.42662890625 116.152 353.00062890625003 118.924 356.49862890625 118.924Z"/><path d="M388.11262890625005 118.924C392.20462890625004 118.924 396.69262890625004 117.538 400.19062890625 114.436L396.36262890625005 108.03399999999999C394.31662890625 109.75 391.87462890625005 111.004 389.16862890625004 111.004C383.82262890625003 111.004 379.99462890625 106.516 379.99462890625 99.52C379.99462890625 92.59 383.82262890625003 88.036 389.49862890625 88.036C391.54462890625 88.036 393.26062890625 88.894 395.10862890625003 90.412L399.72862890625004 84.274C397.02262890625 81.832 393.52462890625003 80.116 388.97062890625 80.116C378.93862890625 80.116 370.09462890625 87.244 370.09462890625 99.52C370.09462890625 111.79599999999999 377.94862890625 118.924 388.11262890625005 118.924Z"/><path d="M422.63062890625 118.924C431.87062890625003 118.924 440.38462890625 111.79599999999999 440.38462890625 99.52C440.38462890625 87.244 431.87062890625003 80.116 422.63062890625 80.116C413.32462890625 80.116 404.87662890625 87.244 404.87662890625 99.52C404.87662890625 111.79599999999999 413.32462890625 118.924 422.63062890625 118.924ZM422.63062890625 111.004C417.54862890625003 111.004 414.77662890625 106.516 414.77662890625 99.52C414.77662890625 92.59 417.54862890625003 88.036 422.63062890625 88.036C427.64662890625 88.036 430.48462890625 92.59 430.48462890625 99.52C430.48462890625 106.516 427.64662890625 111.004 422.63062890625 111.004Z"/><path d="M448.50262890625 118.0H458.20462890625V92.59C460.77862890625 89.752 463.15462890624997 88.432 465.26662890625 88.432C468.83062890625 88.432 470.48062890625 90.412 470.48062890625 96.154V118.0H480.11662890624996V92.59C482.75662890625 89.752 485.13262890625 88.432 487.24462890625 88.432C490.74262890625 88.432 492.39262890624997 90.412 492.39262890624997 96.154V118.0H502.02862890625V94.966C502.02862890625 85.66 498.46462890624997 80.116 490.61062890625 80.116C485.85862890625 80.116 482.22862890625 83.02 478.79662890624996 86.584C477.08062890625 82.49199999999999 473.97862890625 80.116 468.69862890625 80.116C463.88062890624997 80.116 460.44862890625 82.756 457.34662890625 85.99000000000001H457.14862890625L456.42262890625 81.03999999999999H448.50262890625Z"/></g>
  <g fill="#1A1A1A"><path d="M189.46 147.46V150.16H198.58V147.46ZM189.34 159.82V162.52H198.64V159.82ZM187.9 151.48V154.33H199.69V151.48ZM189.25 163.96V174.28H192.31V173.11H198.58V171.52C199.24 172.3 200.08 173.77 200.47 174.67C203.05 173.89 205.36 172.81 207.4 171.37C209.29 172.81 211.48 173.92 214.0 174.67C214.51 173.74 215.56 172.3 216.34 171.58C214.0 171.01 211.93 170.11 210.13 168.97C212.23 166.72 213.82 163.84 214.75 160.18L212.41 159.31L211.78 159.46H201.28C204.34 157.27 204.94 153.85 204.94 151.03V150.52H208.27V154.15C208.27 157.15 208.99 158.08 211.42 158.08C211.9 158.08 212.68 158.08 213.19 158.08C215.17 158.08 215.98 157.03 216.28 153.31C215.38 153.07 214.0 152.56 213.37 152.02C213.31 154.63 213.19 155.02 212.8 155.02C212.65 155.02 212.17 155.02 212.05 155.02C211.72 155.02 211.66 154.93 211.66 154.12V147.37H201.55V150.97C201.55 152.98 201.22 155.32 198.64 157.12V155.71H189.34V158.44H198.64V157.3C199.39 157.75 200.62 158.83 201.13 159.46H200.08V162.67H210.16C209.44 164.2 208.48 165.58 207.34 166.75C206.11 165.55 205.12 164.17 204.4 162.67L201.22 163.69C202.15 165.64 203.29 167.38 204.67 168.91C202.9 170.08 200.83 170.95 198.58 171.49V163.96ZM192.31 166.81H195.49V170.26H192.31Z"/><path d="M228.37 155.71V158.44H238.06V155.71ZM228.55 147.46V150.16H238.09V147.46ZM228.37 159.82V162.52H238.06V159.82ZM226.9 151.48V154.33H239.23V151.48ZM245.44 146.65V156.61H239.11V160.18H245.44V174.7H249.07V160.18H255.37V156.61H249.07V146.65ZM228.28 163.96V174.28H231.4V173.11H237.97V163.96ZM231.4 166.81H234.79V170.26H231.4Z"/><path d="M268.93 167.68V170.29H278.05V171.25C278.05 171.79 277.87 171.97 277.3 172.0C276.82 172.0 275.02 172.0 273.58 171.94C274.06 172.69 274.6 173.95 274.78 174.76C277.33 174.76 278.95 174.73 280.12 174.28C281.29 173.77 281.71 173.02 281.71 171.25V170.29H287.11V171.58H290.77V166.3H293.92V163.57H290.77V159.85H281.71V158.5H290.26V152.53H281.71V151.3H293.23V148.48H281.71V146.5H278.05V148.48H266.83V151.3H278.05V152.53H269.89V158.5H278.05V159.85H269.17V162.28H278.05V163.57H266.14V166.3H278.05V167.68ZM273.34 154.81H278.05V156.22H273.34ZM281.71 154.81H286.57V156.22H281.71ZM281.71 162.28H287.11V163.57H281.71ZM281.71 166.3H287.11V167.68H281.71Z"/><path d="M321.52 146.5C320.29 149.26 318.1 151.99 315.76 153.7C316.57 154.18 318.01 155.14 318.67 155.71C319.12 155.32 319.57 154.9 320.02 154.45C320.65 155.35 321.37 156.16 322.15 156.94C321.07 157.48 319.81 157.93 318.46 158.32L318.61 157.6L316.42 156.91L315.94 157.06H314.5L316.0 155.47C315.4 155.05 314.65 154.6 313.78 154.15C315.49 152.71 317.17 150.88 318.19 149.17000000000002L315.91 147.76L315.34 147.88H305.62V150.91H312.85C312.25 151.57 311.62 152.23 310.93 152.8C310.12 152.41 309.31 152.08 308.56 151.81L306.31 154.12C308.17 154.9 310.48 156.01 312.13 157.06H305.2V160.18H308.98C307.93 162.58 306.37 164.92 304.69 166.39C305.23 167.35 306.04 168.82 306.34 169.87C307.78 168.55 309.04 166.54 310.09 164.29V170.74C310.09 171.1 309.97 171.16 309.61 171.19C309.22 171.19 308.02 171.19 306.88 171.16C307.36 172.12 307.81 173.59 307.93 174.58C309.79 174.58 311.17 174.49 312.19 173.95C313.24 173.38 313.48 172.42 313.48 170.8V160.18H315.07C314.8 161.71 314.44 163.24 314.11 164.35L316.54 165.49C317.08 164.11 317.59 162.31 318.01 160.42C318.37 160.9 318.67 161.38 318.85 161.71C321.13 161.08 323.2 160.24 325.0 159.13C326.8 160.27 328.87 161.17 331.15 161.74C331.63 160.84 332.65 159.43 333.43 158.71C331.39 158.32 329.53 157.72 327.88 156.91C329.11 155.68 330.1 154.24 330.85 152.53H332.65V149.56H323.74C324.13 148.87 324.52 148.15 324.85 147.43ZM322.3 160.63C322.21 161.56 322.12 162.46 322.0 163.33H317.62V166.3H321.22C320.32 168.67 318.55 170.59 314.92 171.91C315.67 172.57 316.6 173.86 316.99 174.7C321.76 172.81 323.89 169.87 324.94 166.3H328.42C328.12 169.12 327.73 170.38 327.31 170.8C327.01 171.07 326.77 171.13 326.32 171.13C325.84 171.13 324.82 171.1 323.74 170.98C324.28 171.91 324.67 173.29 324.7 174.31C326.08 174.34 327.34 174.34 328.09 174.25C328.99 174.1 329.65 173.89 330.28 173.17C331.15 172.24 331.69 169.9 332.17 164.68C332.23 164.23 332.29 163.33 332.29 163.33H325.57C325.69 162.46 325.78 161.56 325.87 160.63ZM324.91 155.08C323.92 154.3 323.08 153.46 322.42 152.53H326.86C326.38 153.49 325.72 154.33 324.91 155.08Z"/><path d="M344.59 148.0V151.24H357.91V148.0ZM368.83 146.8C367.03 147.88 364.24 148.96 361.45 149.8L358.96 149.2V157.51C358.96 162.01 358.54 167.98 354.37 172.21C355.21 172.63 356.53 173.89 357.01 174.64C361.03 170.62 362.14 164.8 362.41 160.15H365.92V174.7H369.46V160.15H372.16V156.67H362.47V152.77C365.74 151.96 369.22 150.85 371.98 149.5ZM345.55 153.52V161.17C345.55 164.65 345.4 169.33 343.42 172.57C344.17 172.99 345.67 174.1 346.24 174.73C348.13 171.79 348.73 167.44 348.91 163.75H357.31V153.52ZM348.97 156.73H353.83V160.54H348.97Z"/></g>
</svg>
