<?xml version="1.0" encoding="UTF-8"?>
<!--
  ファイル名 / File: 5garashi_lockup.svg
  概要 / Description: ロックアップ(シンプル版マーク+ロゴタイプ・編集用) / Lockup: simple mark + logotype (editing master)
  作成者 / Author: 5garashi.com設計事務所 / 5garashi.com Design Office
  作成日 / Created: 2026-07-11  版 / Version: 4.3
  ライセンス / License: CC BY-ND 4.0
  Copyright (c) 2026 5garashi.com Design Office
  SPDX-License-Identifier: CC-BY-ND-4.0
-->
<svg xmlns="http://www.w3.org/2000/svg" viewBox="0 0 920 260">
  <g fill="#B92613" transform="translate(0,20) scale(0.49)">
      <path transform="translate(165,235) rotate(8)" d="M0,-190 C22,-126 22,126 0,190 C-22,126 -22,-126 0,-190 Z"/>
      <path transform="translate(245,235) rotate(8)" d="M0,-190 C22,-126 22,126 0,190 C-22,126 -22,-126 0,-190 Z"/>
      <path transform="translate(325,235) rotate(8)" d="M0,-190 C22,-126 22,126 0,190 C-22,126 -22,-126 0,-190 Z"/>
      <path transform="translate(405,235) rotate(8)" d="M0,-190 C22,-126 22,126 0,190 C-22,126 -22,-126 0,-190 Z"/>
      <path transform="translate(280,180) rotate(-4)" d="M-248,0 C-160,-27 160,-27 248,0 C160,27 -160,27 -248,0 Z"/>
  </g>
  <g transform="translate(330,20)">
    <rect x="4" y="4" width="552" height="212" fill="none" stroke="#385723" stroke-width="3"/>
    <rect x="14" y="14" width="532" height="192" fill="#FFE699" stroke="#385723" stroke-width="7"/>
    <text x="280" y="118" text-anchor="middle" font-family="'Hiragino Kaku Gothic ProN','Hiragino Sans','Noto Sans JP','Yu Gothic',sans-serif" font-weight="800" font-size="66" fill="#7B4A21"><tspan font-family="Georgia,'Times New Roman',serif" font-style="italic" font-weight="700" font-size="74" fill="#385723">5</tspan>garashi.com</text>
    <text x="288" y="172" text-anchor="middle" font-family="'Hiragino Kaku Gothic ProN','Hiragino Sans','Noto Sans JP','Yu Gothic',sans-serif" font-weight="800" font-size="30" letter-spacing="9" fill="#7B4A21">設計事務所</text>
  </g>
</svg>
