<?xml version="1.0" encoding="UTF-8"?>
<!--
  ファイル名 / File: 5garashi_logotype_en_outlined.svg
  概要 / Description: 英語カラー・アウトライン版 / English color outlined logotype
  作成者 / Author: 5garashi.com設計事務所 / 5garashi.com Design Office
  最終更新 / Last updated: 2026-07-12  版 / Version: 4.6
  ライセンス / License: CC BY-ND 4.0
  Copyright © 2026 5garashi.com Design Office
  SPDX-License-Identifier: CC-BY-ND-4.0
-->
<svg xmlns="http://www.w3.org/2000/svg" viewBox="0 0 555 215" width="555" height="215" version="1.1">
  <rect x="1.5" y="1.5" width="552" height="212" fill="none" stroke="#385723" stroke-width="3"/>
  <rect x="11.5" y="11.5" width="532" height="192" fill="#ffe699" stroke="#385723" stroke-width="7"/>
  <g style="font-weight:800;font-size:66px;font-family:'Hiragino Kaku Gothic ProN', 'Hiragino Sans', 'Noto Sans JP', 'Yu Gothic', sans-serif;text-anchor:middle;fill:#7b4a21" aria-label="5garashi.com">
    <path style="font-style:italic;font-weight:700;font-size:74px;font-family:Georgia, 'Times New Roman', serif;fill:#385723" d="m 70.605276,128.83301 q -7.154297,0 -12.068359,-3.14356 -4.87793,-3.14355 -4.87793,-7.47949 0,-2.56543 1.625977,-4.33594 1.662109,-1.7705 4.408203,-1.7705 2.854492,0 4.588867,1.62597 1.770508,1.58985 1.770508,4.15528 0,1.80664 -0.614258,3.83007 -0.614258,2.02344 -1.011719,3.14356 0.614258,0.18066 2.05957,0.39746 1.445313,0.25293 2.854493,0.25293 1.842773,0 4.010742,-1.19238 2.167969,-1.15625 3.938476,-3.36036 1.915039,-2.38476 3.071289,-5.34765 1.15625,-2.96289 1.15625,-7.33496 0,-4.08301 -2.05957,-6.46778 -2.05957,-2.420894 -5.817383,-2.420894 -1.842773,0 -3.288086,0.469726 -1.409179,0.469728 -2.746093,1.228518 -1.373047,0.79492 -2.348633,1.55371 -0.975586,0.75879 -2.05957,1.87891 l -2.673829,-0.97559 9.25,-26.955079 h 30.532229 l -2.276369,9.936523 H 70.424612 l -3.938477,12.176758 q 3.360352,-1.987305 6.142579,-2.818359 2.782226,-0.867188 6.070312,-0.867188 2.926758,0 5.636719,0.614258 2.709961,0.578125 5.239258,2.240234 2.457031,1.625977 3.938476,4.155273 1.481446,2.5293 1.481446,6.10645 0,8.708 -7.19043,14.70605 -7.154297,5.99805 -17.199219,5.99805 z"/>
    <path d="m 117.58299,131.406 q -4.29,0 -7.854,-0.99 -3.564,-0.99 -5.676,-3.102 -2.046,-2.046 -2.046,-5.346 0,-2.31 1.32,-4.29 1.386,-1.914 3.96,-3.234 v -0.33 q -1.386,-0.99 -2.376,-2.508 -0.99,-1.518 -0.99,-3.894 0,-1.98 1.188,-3.828 1.188,-1.914 2.97,-3.102 v -0.264 q -1.98,-1.386 -3.564,-3.894 -1.518,-2.574 -1.518,-5.808 0,-4.488 2.178,-7.458 2.178,-3.036 5.676,-4.488 3.498,-1.518 7.458,-1.518 1.65,0 3.102,0.264 1.518,0.198 2.706,0.66 h 13.53 v 7.788 h -6.006 q 0.528,0.858 0.924,2.244 0.396,1.32 0.396,2.838 0,4.224 -1.98,7.062 -1.914,2.772 -5.28,4.158 -3.3,1.32 -7.392,1.32 -0.99,0 -2.178,-0.132 -1.122,-0.198 -2.376,-0.594 -0.66,0.594 -1.056,1.254 -0.33,0.594 -0.33,1.65 0,1.32 1.254,2.046 1.254,0.726 4.422,0.726 h 6.138 q 6.798,0 10.428,2.244 3.696,2.244 3.696,7.194 0,3.828 -2.574,6.798 -2.508,3.036 -7.194,4.752 -4.62,1.782 -10.956,1.782 z m 0.726,-34.188 q 1.518,0 2.706,-0.726 1.254,-0.792 1.914,-2.178 0.726,-1.452 0.726,-3.498 0,-2.046 -0.726,-3.432 -0.66,-1.386 -1.914,-2.112 -1.188,-0.726 -2.706,-0.726 -1.452,0 -2.64,0.726 -1.188,0.726 -1.914,2.112 -0.726,1.32 -0.726,3.432 0,2.046 0.726,3.498 0.726,1.386 1.914,2.178 1.188,0.726 2.64,0.726 z m 0.924,27.456 q 2.64,0 4.554,-0.66 1.98,-0.66 3.102,-1.716 1.122,-1.056 1.122,-2.376 0,-1.848 -1.518,-2.442 -1.518,-0.594 -4.29,-0.594 h -4.026 q -1.848,0 -3.102,-0.132 -1.188,-0.066 -2.112,-0.33 -1.056,0.858 -1.584,1.848 -0.528,0.99 -0.528,1.98 0,2.178 2.31,3.3 2.31,1.122 6.072,1.122 z m 32.63966,-8.25 q -3.366,0 -5.874,-1.452 -2.442,-1.518 -3.828,-4.026 -1.32,-2.574 -1.32,-5.742 0,-5.94 5.016,-9.174 5.016,-3.3 16.038,-4.554 -0.066,-1.65 -0.726,-2.904 -0.594,-1.254 -1.914,-1.914 -1.254,-0.726 -3.3,-0.726 -2.442,0 -4.884,0.924 -2.442,0.924 -5.148,2.442 l -3.762,-7.062 q 2.376,-1.452 4.884,-2.508 2.508,-1.122 5.214,-1.716 2.772,-0.66 5.676,-0.66 4.818,0 8.052,1.848 3.234,1.848 4.95,5.544 1.716,3.696 1.716,9.306 v 21.45 h -8.778 l -0.726,-3.828 h -0.33 q -2.31,2.046 -5.082,3.432 -2.706,1.32 -5.874,1.32 z m 3.63,-8.382 q 1.914,0 3.432,-0.858 1.518,-0.858 2.97,-2.376 v -6.732 q -4.026,0.462 -6.468,1.386 -2.376,0.924 -3.366,2.178 -0.99,1.254 -0.99,2.772 0,1.914 1.188,2.772 1.254,0.858 3.234,0.858 z m 26.59797,7.458 V 78.276 h 8.712 l 0.792,6.534 h 0.198 q 2.046,-3.696 4.884,-5.544 2.838,-1.914 5.742,-1.914 1.584,0 2.574,0.198 1.056,0.198 1.848,0.594 l -1.782,9.174 q -1.056,-0.264 -1.98,-0.396 -0.858,-0.198 -2.046,-0.198 -2.112,0 -4.422,1.584 -2.31,1.584 -3.828,5.478 V 115.5 Z m 36.43079,0.924 q -3.366,0 -5.874,-1.452 -2.442,-1.518 -3.828,-4.026 -1.32,-2.574 -1.32,-5.742 0,-5.94 5.016,-9.174 5.016,-3.3 16.038,-4.554 -0.066,-1.65 -0.726,-2.904 -0.594,-1.254 -1.914,-1.914 -1.254,-0.726 -3.3,-0.726 -2.442,0 -4.884,0.924 -2.442,0.924 -5.148,2.442 l -3.762,-7.062 q 2.376,-1.452 4.884,-2.508 2.508,-1.122 5.214,-1.716 2.772,-0.66 5.676,-0.66 4.818,0 8.052,1.848 3.234,1.848 4.95,5.544 1.716,3.696 1.716,9.306 v 21.45 h -8.778 l -0.726,-3.828 h -0.33 q -2.31,2.046 -5.082,3.432 -2.706,1.32 -5.874,1.32 z m 3.63,-8.382 q 1.914,0 3.432,-0.858 1.518,-0.858 2.97,-2.376 v -6.732 q -4.026,0.462 -6.468,1.386 -2.376,0.924 -3.366,2.178 -0.99,1.254 -0.99,2.772 0,1.914 1.188,2.772 1.254,0.858 3.234,0.858 z m 37.48797,8.382 q -3.696,0 -7.59,-1.452 -3.828,-1.452 -6.666,-3.762 l 4.752,-6.732 q 2.574,1.914 4.95,2.97 2.376,1.056 4.752,1.056 2.574,0 3.762,-0.924 1.188,-0.99 1.188,-2.574 0,-1.254 -1.122,-2.112 -1.056,-0.858 -2.838,-1.584 -1.716,-0.726 -3.63,-1.452 -2.31,-0.924 -4.554,-2.244 -2.244,-1.386 -3.762,-3.498 -1.452,-2.112 -1.452,-5.214 0,-3.432 1.716,-6.006 1.782,-2.64 4.95,-4.092 3.234,-1.452 7.458,-1.452 4.224,0 7.458,1.452 3.234,1.386 5.544,3.234 l -4.818,6.402 q -1.98,-1.452 -3.96,-2.31 -1.914,-0.858 -3.894,-0.858 -2.244,0 -3.366,0.858 -1.056,0.858 -1.056,2.31 0,1.188 0.99,1.98 0.99,0.792 2.64,1.452 1.65,0.594 3.63,1.32 1.782,0.726 3.564,1.584 1.782,0.858 3.234,2.178 1.518,1.32 2.376,3.102 0.858,1.782 0.858,4.356 0,3.366 -1.716,6.138 -1.716,2.706 -5.082,4.29 -3.366,1.584 -8.316,1.584 z M 281.89143,115.5 V 62.832 h 10.692 v 12.936 l -0.528,6.798 q 2.112,-1.98 4.884,-3.564 2.838,-1.65 6.666,-1.65 6.072,0 8.778,4.026 2.772,3.96 2.772,10.956 V 115.5 h -10.692 V 93.72 q 0,-4.158 -1.188,-5.676 -1.122,-1.518 -3.63,-1.518 -2.112,0 -3.63,0.99 -1.518,0.924 -3.432,2.706 V 115.5 Z m 42.834,0 V 78.276 h 10.692 V 115.5 Z m 5.346,-42.834 q -2.772,0 -4.422,-1.518 -1.65,-1.584 -1.65,-4.224 0,-2.508 1.65,-4.026 1.65,-1.584 4.422,-1.584 2.706,0 4.356,1.584 1.716,1.518 1.716,4.026 0,2.64 -1.716,4.224 -1.65,1.518 -4.356,1.518 z m 21.44999,43.758 q -2.772,0 -4.62,-1.98 -1.848,-1.98 -1.848,-4.884 0,-2.904 1.848,-4.818 1.848,-1.914 4.62,-1.914 2.838,0 4.686,1.914 1.848,1.914 1.848,4.818 0,2.904 -1.848,4.884 -1.848,1.98 -4.686,1.98 z m 31.00479,0 q -5.214,0 -9.372,-2.31 -4.092,-2.31 -6.534,-6.666 -2.442,-4.422 -2.442,-10.56 0,-6.204 2.64,-10.56 2.706,-4.356 7.128,-6.666 4.422,-2.31 9.504,-2.31 3.432,0 6.138,1.122 2.706,1.122 4.752,2.904 l -5.016,6.864 q -1.32,-1.122 -2.574,-1.65 -1.254,-0.528 -2.64,-0.528 -2.706,0 -4.752,1.32 -1.98,1.32 -3.102,3.762 -1.122,2.442 -1.122,5.742 0,3.234 1.122,5.742 1.122,2.442 3.036,3.762 1.98,1.32 4.422,1.32 1.914,0 3.63,-0.792 1.716,-0.792 3.234,-1.98 l 4.224,7.062 q -2.706,2.376 -6.006,3.432 -3.234,0.99 -6.27,0.99 z m 32.36765,0 q -4.686,0 -8.844,-2.31 -4.158,-2.31 -6.732,-6.666 -2.508,-4.422 -2.508,-10.56 0,-6.204 2.508,-10.56 2.574,-4.356 6.732,-6.666 4.158,-2.31 8.844,-2.31 3.498,0 6.732,1.32 3.3,1.254 5.808,3.828 2.508,2.508 3.96,6.138 1.518,3.564 1.518,8.25 0,6.138 -2.574,10.56 -2.508,4.356 -6.666,6.666 -4.092,2.31 -8.778,2.31 z m 0,-8.712 q 2.376,0 3.96,-1.32 1.584,-1.32 2.31,-3.762 0.792,-2.508 0.792,-5.742 0,-3.3 -0.792,-5.742 -0.726,-2.442 -2.31,-3.762 -1.584,-1.32 -3.96,-1.32 -2.31,0 -3.894,1.32 -1.584,1.32 -2.442,3.762 -0.792,2.442 -0.792,5.742 0,3.234 0.792,5.742 0.858,2.442 2.442,3.762 1.584,1.32 3.894,1.32 z m 25.80603,7.788 V 78.276 h 8.712 l 0.792,4.818 h 0.198 q 2.31,-2.376 4.95,-4.026 2.706,-1.716 6.402,-1.716 3.96,0 6.402,1.65 2.442,1.584 3.828,4.62 2.508,-2.574 5.28,-4.422 2.838,-1.848 6.534,-1.848 6.006,0 8.778,4.026 2.772,3.96 2.772,10.956 V 115.5 h -10.692 V 93.72 q 0,-4.158 -1.122,-5.676 -1.122,-1.518 -3.63,-1.518 -1.386,0 -3.036,0.924 -1.65,0.924 -3.498,2.772 V 115.5 h -10.692 V 93.72 q 0,-4.158 -1.188,-5.676 -1.122,-1.518 -3.63,-1.518 -1.386,0 -3.036,0.924 -1.65,0.924 -3.432,2.772 V 115.5 Z"/>
  </g>
  <path style="font-size:26.6667px;font-family:'Noto Sans JP';-inkscape-font-specification:'Noto Sans JP, @wght=700';font-variant-ligatures:no-common-ligatures;font-variation-settings:'wght' 700;letter-spacing:7px;text-anchor:middle;fill:#7b4a21" d="m 159.92877,169.5 v -19.76 h 5.41333 q 3.04,0 5.2,1.06667 2.18667,1.06666 3.36,3.22666 1.2,2.16 1.2,5.49334 0,3.33333 -1.17333,5.54666 -1.17333,2.21334 -3.30667,3.33334 -2.13333,1.09333 -5.06666,1.09333 z m 3.94667,-3.2 h 1.2 q 1.86666,0 3.2,-0.66667 1.36,-0.69333 2.08,-2.18666 0.72,-1.52 0.72,-3.92 0,-2.4 -0.72,-3.84 -0.72,-1.46667 -2.08,-2.10667 -1.33334,-0.66667 -3.2,-0.66667 h -1.2 z m 28.28001,3.57333 q -2.08,0 -3.76,-0.93333 -1.68,-0.93333 -2.69333,-2.69333 -0.98667,-1.76 -0.98667,-4.21334 0,-1.81333 0.56,-3.25333 0.58667,-1.44 1.57334,-2.45333 1.01333,-1.04 2.24,-1.57334 1.25333,-0.56 2.58666,-0.56 2.05334,0 3.44,0.93334 1.38667,0.90666 2.08,2.53333 0.72,1.6 0.72,3.68 0,0.53333 -0.0533,1.04 -0.0533,0.48 -0.13333,0.77333 h -9.2 q 0.16,1.2 0.72,2.02667 0.56,0.82667 1.44,1.25333 0.88,0.4 2,0.4 0.90666,0 1.70666,-0.24 0.8,-0.26666 1.62667,-0.77333 l 1.33333,2.4 q -1.09333,0.74667 -2.45333,1.2 -1.36,0.45333 -2.74667,0.45333 z m -3.70666,-9.36 h 6.10666 q 0,-1.49333 -0.69333,-2.37333 -0.66667,-0.90667 -2.13333,-0.90667 -0.77334,0 -1.46667,0.37334 -0.69333,0.34666 -1.17333,1.09333 -0.48,0.72 -0.64,1.81333 z m 23.95998,9.36 q -1.49333,0 -3.04,-0.58666 -1.52,-0.58667 -2.64,-1.49334 l 1.78667,-2.48 q 0.98666,0.74667 1.94666,1.2 0.98667,0.42667 2.05334,0.42667 1.12,0 1.62666,-0.42667 0.53334,-0.45333 0.53334,-1.14666 0,-0.56 -0.45334,-0.93334 -0.45333,-0.4 -1.17333,-0.69333 -0.72,-0.32 -1.49333,-0.61333 -0.93334,-0.37334 -1.86667,-0.90667 -0.90667,-0.53333 -1.52,-1.36 -0.61333,-0.85333 -0.61333,-2.10667 0,-1.33333 0.69333,-2.34666 0.69333,-1.04 1.92,-1.62667 1.25333,-0.58667 2.96,-0.58667 1.62667,0 2.88,0.56 1.28,0.56 2.18667,1.28 l -1.76,2.37334 q -0.8,-0.58667 -1.6,-0.93334 -0.77334,-0.34666 -1.6,-0.34666 -1.04,0 -1.52,0.4 -0.48,0.4 -0.48,1.04 0,0.53333 0.4,0.90666 0.4,0.34667 1.09333,0.61334 0.69333,0.26666 1.46667,0.56 0.74666,0.26666 1.46666,0.64 0.74667,0.34666 1.36,0.85333 0.61334,0.50667 0.96,1.25333 0.37334,0.72 0.37334,1.76 0,1.30667 -0.69334,2.4 -0.66666,1.06667 -2,1.70667 -1.30666,0.61333 -3.25333,0.61333 z M 228.34212,169.5 v -14.93333 h 3.92 V 169.5 Z m 1.97334,-17.36 q -1.04,0 -1.65334,-0.56 -0.61333,-0.58667 -0.61333,-1.57333 0,-0.96 0.61333,-1.54667 0.61334,-0.58667 1.65334,-0.58667 0.98666,0 1.62666,0.58667 0.64,0.58667 0.64,1.54667 0,0.98666 -0.64,1.57333 -0.64,0.56 -1.62666,0.56 z m 18.38668,23.84 q -1.76,0 -3.17333,-0.42667 -1.41333,-0.4 -2.24,-1.25333 -0.8,-0.82667 -0.8,-2.16 0,-0.93333 0.53333,-1.73333 0.53334,-0.8 1.6,-1.36 v -0.13334 q -0.58666,-0.37333 -0.98666,-0.98666 -0.37334,-0.61334 -0.37334,-1.54667 0,-0.82667 0.48,-1.54667 0.50667,-0.74666 1.17334,-1.22666 V 163.5 q -0.77334,-0.56 -1.38667,-1.57333 -0.61333,-1.01334 -0.61333,-2.34667 0,-1.76 0.82666,-2.96 0.85334,-1.2 2.24,-1.81333 1.38667,-0.61334 2.93334,-0.61334 0.66666,0 1.22666,0.10667 0.58667,0.10667 1.06667,0.26667 h 5.36 v 2.88 h -2.53333 q 0.29333,0.4 0.48,0.98666 0.18666,0.58667 0.18666,1.28 0,1.68 -0.77333,2.82667 -0.77333,1.12 -2.08,1.68 -1.30667,0.56 -2.93333,0.56 -0.4,0 -0.90667,-0.08 -0.50667,-0.10667 -1.01333,-0.26667 -0.29334,0.26667 -0.48,0.56 -0.16,0.26667 -0.16,0.74667 0,0.56 0.50666,0.88 0.53334,0.32 1.84,0.32 h 2.56 q 2.69334,0 4.13334,0.90667 1.44,0.88 1.44,2.82666 0,1.52 -1.01334,2.69334 -0.98666,1.2 -2.82666,1.89333 -1.81334,0.72 -4.29334,0.72 z m 0.21334,-13.62667 q 0.66666,0 1.2,-0.32 0.53333,-0.32 0.85333,-0.93333 0.32,-0.64 0.32,-1.52 0,-0.88 -0.32,-1.46667 -0.32,-0.61333 -0.85333,-0.90666 -0.53334,-0.32 -1.2,-0.32 -0.64,0 -1.17334,0.32 -0.53333,0.29333 -0.85333,0.90666 -0.29333,0.58667 -0.29333,1.46667 0,0.88 0.29333,1.52 0.32,0.61333 0.85333,0.93333 0.53334,0.32 1.17334,0.32 z m 0.37333,11.12 q 1.14667,0 1.97333,-0.29333 0.85334,-0.29333 1.33334,-0.77333 0.48,-0.48 0.48,-1.06667 0,-0.8 -0.64,-1.09333 -0.64,-0.26667 -1.84,-0.26667 h -1.84 q -0.66667,0 -1.14667,-0.0533 -0.48,-0.0267 -0.90667,-0.13334 -0.50666,0.4 -0.74666,0.82667 -0.21334,0.45333 -0.21334,0.93333 0,0.90667 0.96,1.41334 0.96,0.50666 2.58667,0.50666 z M 266.36882,169.5 v -14.93333 h 3.2 l 0.29333,1.97333 h 0.08 q 0.98667,-0.96 2.16,-1.65333 1.17333,-0.69334 2.69333,-0.69334 2.42667,0 3.52,1.6 1.09334,1.57334 1.09334,4.4 V 169.5 h -3.92 v -8.82667 q 0,-1.73333 -0.50667,-2.42666 -0.48,-0.69334 -1.6,-0.69334 -0.90667,0 -1.6,0.42667 -0.66667,0.42667 -1.49333,1.25333 V 169.5 Z m 45.30667,0.37333 q -2.61333,0 -4.61333,-1.22666 -1.97333,-1.25334 -3.09333,-3.57334 -1.12,-2.32 -1.12,-5.54666 0,-3.2 1.12,-5.46667 1.12,-2.26667 3.09333,-3.46667 2,-1.2 4.61333,-1.2 2.64,0 4.61334,1.22667 1.97333,1.2 3.09333,3.46667 1.12,2.24 1.12,5.44 0,3.22666 -1.12,5.54666 -1.12,2.32 -3.09333,3.57334 -1.97334,1.22666 -4.61334,1.22666 z m 0,-3.41333 q 1.46667,0 2.53334,-0.85333 1.09333,-0.85334 1.68,-2.4 0.58666,-1.57334 0.58666,-3.68 0,-2.10667 -0.58666,-3.6 -0.58667,-1.52 -1.68,-2.32 -1.06667,-0.82667 -2.53334,-0.82667 -1.46666,0 -2.56,0.82667 -1.06666,0.8 -1.65333,2.32 -0.56,1.49333 -0.56,3.6 0,2.10666 0.56,3.68 0.58667,1.54666 1.65333,2.4 1.09334,0.85333 2.56,0.85333 z m 20.04001,3.04 v -16.13333 q 0,-1.54667 0.50667,-2.8 0.53333,-1.25334 1.65333,-1.97334 1.14667,-0.74666 3.01333,-0.74666 0.90667,0 1.62667,0.16 0.72,0.16 1.22667,0.34666 l -0.72,2.93334 q -0.74667,-0.34667 -1.6,-0.34667 -0.85334,0 -1.33334,0.56 -0.48,0.56 -0.48,1.78667 V 169.5 Z m -2.02667,-11.84 v -2.90667 l 2.24,-0.18666 h 6.53334 V 157.66 Z m 18.94665,11.84 v -16.13333 q 0,-1.54667 0.50667,-2.8 0.53333,-1.25334 1.65333,-1.97334 1.14667,-0.74666 3.01334,-0.74666 0.90666,0 1.62666,0.16 0.72,0.16 1.22667,0.34666 l -0.72,2.93334 q -0.74667,-0.34667 -1.6,-0.34667 -0.85333,0 -1.33333,0.56 -0.48,0.56 -0.48,1.78667 V 169.5 Z m -2.02666,-11.84 v -2.90667 l 2.24,-0.18666 h 6.53333 V 157.66 Z m 18.27999,11.84 v -14.93333 h 3.92 V 169.5 Z m 1.97334,-17.36 q -1.04,0 -1.65334,-0.56 -0.61333,-0.58667 -0.61333,-1.57333 0,-0.96 0.61333,-1.54667 0.61334,-0.58667 1.65334,-0.58667 0.98666,0 1.62666,0.58667 0.64,0.58667 0.64,1.54667 0,0.98666 -0.64,1.57333 -0.64,0.56 -1.62666,0.56 z m 19.48002,17.73333 q -2.05333,0 -3.70667,-0.93333 -1.65333,-0.93333 -2.61333,-2.66667 -0.96,-1.76 -0.96,-4.24 0,-2.48 1.04,-4.21333 1.06667,-1.76 2.8,-2.69333 1.76,-0.93334 3.78667,-0.93334 1.38666,0 2.45333,0.48 1.06667,0.45334 1.89333,1.2 l -1.86666,2.48 q -0.53334,-0.48 -1.09334,-0.72 -0.56,-0.24 -1.17333,-0.24 -1.14667,0 -2.02667,0.58667 -0.85333,0.56 -1.33333,1.6 -0.45333,1.04 -0.45333,2.45333 0,1.41334 0.45333,2.45334 0.48,1.04 1.30667,1.62666 0.85333,0.56 1.92,0.56 0.8,0 1.54666,-0.34666 0.74667,-0.34667 1.36,-0.85334 l 1.54667,2.58667 q -1.06667,0.93333 -2.37333,1.38667 -1.28,0.42666 -2.50667,0.42666 z m 20.27574,0 q -2.08,0 -3.76,-0.93333 -1.68,-0.93333 -2.69334,-2.69333 -0.98666,-1.76 -0.98666,-4.21334 0,-1.81333 0.56,-3.25333 0.58666,-1.44 1.57333,-2.45333 1.01333,-1.04 2.24,-1.57334 1.25333,-0.56 2.58667,-0.56 2.05333,0 3.44,0.93334 1.38666,0.90666 2.08,2.53333 0.72,1.6 0.72,3.68 0,0.53333 -0.0533,1.04 -0.0533,0.48 -0.13333,0.77333 h -9.2 q 0.16,1.2 0.72,2.02667 0.56,0.82667 1.44,1.25333 0.88,0.4 2,0.4 0.90667,0 1.70667,-0.24 0.8,-0.26666 1.62666,-0.77333 l 1.33334,2.4 q -1.09334,0.74667 -2.45334,1.2 -1.36,0.45333 -2.74666,0.45333 z m -3.70667,-9.36 h 6.10667 q 0,-1.49333 -0.69334,-2.37333 -0.66666,-0.90667 -2.13333,-0.90667 -0.77333,0 -1.46667,0.37334 -0.69333,0.34666 -1.17333,1.09333 -0.48,0.72 -0.64,1.81333 z" aria-label="Design Office"/>
</svg>
