<?xml version="1.0" encoding="UTF-8"?>
<!--
  ファイル名 / File: 5garashi_mark_simple_black.svg
  概要 / Description: シンボルマーク(モノクロ文書用・スミ #1A1A1A:規定3-6) / Symbol mark, single black (rule 3-6)
  作成者 / Author: 5garashi.com設計事務所 / 5garashi.com Design Office
  作成日 / Created: 2026-07-11  版 / Version: 4.3
  ライセンス / License: CC BY-ND 4.0
  Copyright (c) 2026 5garashi.com Design Office
  SPDX-License-Identifier: CC-BY-ND-4.0
-->
<svg xmlns="http://www.w3.org/2000/svg" viewBox="0 0 560 450">
  <g fill="#1A1A1A">
    <path transform="translate(165,235) rotate(8)" d="M0,-190 C22,-126 22,126 0,190 C-22,126 -22,-126 0,-190 Z"/>
    <path transform="translate(245,235) rotate(8)" d="M0,-190 C22,-126 22,126 0,190 C-22,126 -22,-126 0,-190 Z"/>
    <path transform="translate(325,235) rotate(8)" d="M0,-190 C22,-126 22,126 0,190 C-22,126 -22,-126 0,-190 Z"/>
    <path transform="translate(405,235) rotate(8)" d="M0,-190 C22,-126 22,126 0,190 C-22,126 -22,-126 0,-190 Z"/>
    <path transform="translate(280,180) rotate(-4)" d="M-248,0 C-160,-27 160,-27 248,0 C160,27 -160,27 -248,0 Z"/>
  </g>
</svg>
